<svg xmlns="http://www.w3.org/2000/svg" xml:space="preserve" width="2000" height="1500" data-id="lg_YblScx0i4jycxflSJO" data-version="1"><path fill="#220f01" stroke="transparent" d="M0 0h2000v1500H0z"/><g data-padding="20"><g transform="translate(-1628.319 -1225.268)scale(2.56089)"><path fill="#e03e0b" d="M1267.945 861.991h-48.14v-214.28h48.14Zm-138.55 0h-48.15v-214.28h48.15Zm98.92-86.59h-107.44v-42.27h107.44Z"/><rect width="251.16" height="337.87" x="498.175" y="198.806" fill="none" rx="0" ry="0" transform="translate(559.5 403.58)"/><path fill="#e03e0b" d="M875.585 666.871c-72.76 0-131.76 98.82-131.76 98.82s59 98.82 131.76 98.82 131.76-98.82 131.76-98.82-59-98.82-131.76-98.82m0 164.7c-36.384 0-65.88-29.496-65.88-65.88s29.496-65.88 65.88-65.88 65.88 29.496 65.88 65.88-29.496 65.88-65.88 65.88"/><path fill="#e03e0b" d="M875.585 732.751a32.94 32.94 0 1 0 0 65.88 32.94 32.94 0 1 0 0-65.88"/></g><path fill="transparent" stroke="transparent" stroke-width="2.655" d="M250 301.327h1500v897.346H250z"/></g></svg>